<?xml version="1.0"?>
<!-- Generated by SVGo -->
<svg width="52" height="92"
     xmlns="http://www.w3.org/2000/svg"
     xmlns:xlink="http://www.w3.org/1999/xlink">
<rect x="0" y="0" width="2" height="2" style="fill:#cb4b16" />
<rect x="0" y="2" width="2" height="2" style="fill:#cb4b16" />
<rect x="0" y="4" width="2" height="2" style="fill:#cb4b16" />
<rect x="2" y="0" width="2" height="2" style="fill:#cb4b16" />
<rect x="2" y="2" width="2" height="2" style="fill:#cb4b16" />
<rect x="2" y="4" width="2" height="2" style="fill:#cb4b16" />
<rect x="2" y="6" width="2" height="14" style="fill:#586e75" />
<rect x="2" y="20" width="2" height="2" style="fill:#cb4b16" />
<rect x="2" y="22" width="2" height="14" style="fill:#586e75" />
<rect x="2" y="36" width="2" height="2" style="fill:#cb4b16" />
<rect x="4" y="0" width="2" height="2" style="fill:#cb4b16" />
<rect x="4" y="2" width="2" height="2" style="fill:#cb4b16" />
<rect x="4" y="4" width="2" height="2" style="fill:#cb4b16" />
<rect x="4" y="6" width="2" height="14" style="fill:#586e75" />
<rect x="4" y="20" width="2" height="14" style="fill:#586e75" />
<rect x="4" y="34" width="2" height="2" style="fill:#cb4b16" />
<rect x="4" y="36" width="2" height="2" style="fill:#cb4b16" />
<rect x="4" y="38" width="2" height="14" style="fill:#586e75" />
<rect x="4" y="52" width="2" height="14" style="fill:#586e75" />
<rect x="4" y="66" width="2" height="14" style="fill:#586e75" />
<rect x="6" y="0" width="2" height="2" style="fill:#cb4b16" />
<rect x="6" y="2" width="2" height="2" style="fill:#cb4b16" />
<rect x="6" y="4" width="2" height="2" style="fill:#cb4b16" />
<rect x="6" y="6" width="2" height="14" style="fill:#586e75" />
<rect x="6" y="20" width="2" height="14" style="fill:#586e75" />
<rect x="6" y="34" width="2" height="2" style="fill:#cb4b16" />
<rect x="6" y="36" width="2" height="14" style="fill:#586e75" />
<rect x="6" y="50" width="2" height="14" style="fill:#586e75" />
<rect x="6" y="64" width="2" height="14" style="fill:#586e75" />
<rect x="6" y="78" width="2" height="2" style="fill:#cb4b16" />
<rect x="8" y="0" width="2" height="2" style="fill:#cb4b16" />
<rect x="8" y="2" width="2" height="2" style="fill:#cb4b16" />
<rect x="8" y="4" width="2" height="2" style="fill:#cb4b16" />
<rect x="8" y="6" width="2" height="14" style="fill:#586e75" />
<rect x="8" y="20" width="2" height="14" style="fill:#586e75" />
<rect x="8" y="34" width="2" height="2" style="fill:#cb4b16" />
<rect x="8" y="36" width="2" height="14" style="fill:#586e75" />
<rect x="8" y="50" width="2" height="2" style="fill:#cb4b16" />
<rect x="8" y="52" width="2" height="2" style="fill:#cb4b16" />
<rect x="8" y="54" width="2" height="14" style="fill:#586e75" />
<rect x="10" y="0" width="2" height="2" style="fill:#cb4b16" />
<rect x="10" y="2" width="2" height="2" style="fill:#cb4b16" />
<rect x="10" y="4" width="2" height="2" style="fill:#cb4b16" />
<rect x="10" y="6" width="2" height="14" style="fill:#586e75" />
<rect x="10" y="20" width="2" height="14" style="fill:#586e75" />
<rect x="10" y="34" width="2" height="2" style="fill:#cb4b16" />
<rect x="10" y="36" width="2" height="2" style="fill:#cb4b16" />
<rect x="10" y="38" width="2" height="14" style="fill:#586e75" />
<rect x="10" y="52" width="2" height="14" style="fill:#586e75" />
<rect x="10" y="66" width="2" height="14" style="fill:#586e75" />
<rect x="12" y="0" width="2" height="2" style="fill:#cb4b16" />
<rect x="12" y="2" width="2" height="2" style="fill:#cb4b16" />
<rect x="12" y="4" width="2" height="2" style="fill:#cb4b16" />
<rect x="12" y="6" width="2" height="14" style="fill:#586e75" />
<rect x="12" y="20" width="2" height="14" style="fill:#586e75" />
<rect x="12" y="34" width="2" height="2" style="fill:#cb4b16" />
<rect x="12" y="36" width="2" height="2" style="fill:#cb4b16" />
<rect x="12" y="38" width="2" height="14" style="fill:#586e75" />
<rect x="12" y="52" width="2" height="14" style="fill:#586e75" />
<rect x="12" y="66" width="2" height="14" style="fill:#586e75" />
<rect x="14" y="0" width="2" height="2" style="fill:#cb4b16" />
<rect x="14" y="2" width="2" height="2" style="fill:#cb4b16" />
<rect x="14" y="4" width="2" height="2" style="fill:#cb4b16" />
<rect x="14" y="6" width="2" height="14" style="fill:#586e75" />
<rect x="14" y="20" width="2" height="14" style="fill:#586e75" />
<rect x="14" y="34" width="2" height="2" style="fill:#cb4b16" />
<rect x="14" y="36" width="2" height="14" style="fill:#586e75" />
<rect x="14" y="50" width="2" height="14" style="fill:#586e75" />
<rect x="14" y="64" width="2" height="14" style="fill:#586e75" />
<rect x="14" y="78" width="2" height="14" style="fill:#586e75" />
<rect x="16" y="0" width="2" height="2" style="fill:#cb4b16" />
<rect x="16" y="2" width="2" height="2" style="fill:#cb4b16" />
<rect x="16" y="4" width="2" height="2" style="fill:#cb4b16" />
<rect x="16" y="6" width="2" height="14" style="fill:#586e75" />
<rect x="16" y="20" width="2" height="2" style="fill:#cb4b16" />
<rect x="16" y="22" width="2" height="2" style="fill:#cb4b16" />
<rect x="16" y="24" width="2" height="14" style="fill:#586e75" />
<rect x="16" y="38" width="2" height="14" style="fill:#586e75" />
<rect x="16" y="52" width="2" height="2" style="fill:#cb4b16" />
<rect x="16" y="54" width="2" height="2" style="fill:#cb4b16" />
<rect x="18" y="0" width="2" height="2" style="fill:#cb4b16" />
<rect x="18" y="2" width="2" height="2" style="fill:#cb4b16" />
<rect x="18" y="4" width="2" height="2" style="fill:#cb4b16" />
<rect x="18" y="6" width="2" height="14" style="fill:#586e75" />
<rect x="18" y="20" width="2" height="2" style="fill:#cb4b16" />
<rect x="18" y="22" width="2" height="2" style="fill:#cb4b16" />
<rect x="18" y="24" width="2" height="2" style="fill:#cb4b16" />
<rect x="18" y="26" width="2" height="2" style="fill:#cb4b16" />
<rect x="18" y="28" width="2" height="2" style="fill:#cb4b16" />
<rect x="20" y="0" width="2" height="2" style="fill:#cb4b16" />
<rect x="20" y="2" width="2" height="2" style="fill:#cb4b16" />
<rect x="20" y="4" width="2" height="2" style="fill:#cb4b16" />
<rect x="20" y="6" width="2" height="14" style="fill:#586e75" />
<rect x="20" y="20" width="2" height="14" style="fill:#586e75" />
<rect x="20" y="34" width="2" height="14" style="fill:#586e75" />
<rect x="20" y="48" width="2" height="2" style="fill:#cb4b16" />
<rect x="20" y="50" width="2" height="2" style="fill:#cb4b16" />
<rect x="20" y="52" width="2" height="14" style="fill:#586e75" />
<rect x="20" y="66" width="2" height="2" style="fill:#cb4b16" />
<rect x="22" y="0" width="2" height="2" style="fill:#cb4b16" />
<rect x="22" y="2" width="2" height="2" style="fill:#cb4b16" />
<rect x="22" y="4" width="2" height="2" style="fill:#cb4b16" />
<rect x="22" y="6" width="2" height="14" style="fill:#586e75" />
<rect x="22" y="20" width="2" height="14" style="fill:#586e75" />
<rect x="22" y="34" width="2" height="2" style="fill:#cb4b16" />
<rect x="22" y="36" width="2" height="2" style="fill:#cb4b16" />
<rect x="22" y="38" width="2" height="14" style="fill:#586e75" />
<rect x="22" y="52" width="2" height="2" style="fill:#cb4b16" />
<rect x="22" y="54" width="2" height="14" style="fill:#586e75" />
<rect x="24" y="0" width="2" height="2" style="fill:#cb4b16" />
<rect x="24" y="2" width="2" height="2" style="fill:#cb4b16" />
<rect x="24" y="4" width="2" height="2" style="fill:#cb4b16" />
<rect x="24" y="6" width="2" height="14" style="fill:#586e75" />
<rect x="24" y="20" width="2" height="14" style="fill:#586e75" />
<rect x="24" y="34" width="2" height="14" style="fill:#586e75" />
<rect x="24" y="48" width="2" height="2" style="fill:#cb4b16" />
<rect x="24" y="50" width="2" height="14" style="fill:#586e75" />
<rect x="24" y="64" width="2" height="14" style="fill:#586e75" />
<rect x="24" y="78" width="2" height="2" style="fill:#cb4b16" />
<rect x="26" y="0" width="2" height="2" style="fill:#cb4b16" />
<rect x="26" y="2" width="2" height="2" style="fill:#cb4b16" />
<rect x="26" y="4" width="2" height="2" style="fill:#cb4b16" />
<rect x="26" y="6" width="2" height="14" style="fill:#586e75" />
<rect x="26" y="20" width="2" height="2" style="fill:#cb4b16" />
<rect x="26" y="22" width="2" height="2" style="fill:#cb4b16" />
<rect x="26" y="24" width="2" height="14" style="fill:#586e75" />
<rect x="26" y="38" width="2" height="14" style="fill:#586e75" />
<rect x="26" y="52" width="2" height="14" style="fill:#586e75" />
<rect x="26" y="66" width="2" height="14" style="fill:#586e75" />
<rect x="30" y="0" width="2" height="2" style="fill:#cb4b16" />
<rect x="30" y="2" width="2" height="2" style="fill:#cb4b16" />
<rect x="32" y="0" width="2" height="2" style="fill:#cb4b16" />
<rect x="34" y="0" width="2" height="2" style="fill:#cb4b16" />
<rect x="36" y="0" width="2" height="14" style="fill:#586e75" />
<rect x="36" y="14" width="2" height="2" style="fill:#cb4b16" />
<rect x="36" y="16" width="2" height="14" style="fill:#586e75" />
<rect x="38" y="0" width="2" height="14" style="fill:#586e75" />
<rect x="40" y="0" width="2" height="2" style="fill:#cb4b16" />
<rect x="40" y="2" width="2" height="2" style="fill:#cb4b16" />
<rect x="42" y="0" width="2" height="2" style="fill:#cb4b16" />
<rect x="48" y="0" width="2" height="2" style="fill:#cb4b16" />
<rect x="48" y="2" width="2" height="2" style="fill:#cb4b16" />
<rect x="48" y="4" width="2" height="14" style="fill:#586e75" />
<rect x="50" y="0" width="2" height="2" style="fill:#cb4b16" />
</svg>
